<?xml version="1.0" standalone="no"?>
<!DOCTYPE svg PUBLIC "-//W3C//DTD SVG 20010904//EN"
 "http://www.w3.org/TR/2001/REC-SVG-20010904/DTD/svg10.dtd">
<svg version="1.0" xmlns="http://www.w3.org/2000/svg"
 width="300.000000pt" height="300.000000pt" viewBox="0 0 300.000000 300.000000"
 preserveAspectRatio="xMidYMid meet">
<metadata>
Created by potrace 1.11, written by Peter Selinger 2001-2013
</metadata>
<g transform="translate(0.000000,300.000000) scale(0.100000,-0.100000)"
fill="#000000" stroke="none">
<path d="M163 2412 c-42 -3 -43 -4 -43 -40 -1 -51 -1 -1712 0 -1790 l0 -64
303 5 c328 5 364 10 448 60 88 52 145 160 164 307 18 138 25 774 12 995 -15
259 -50 367 -144 444 -44 36 -136 68 -226 77 -67 6 -445 11 -514 6z m494 -322
c59 -36 68 -118 68 -630 -1 -491 -10 -583 -63 -618 -34 -22 -212 -31 -213 -11
-1 8 -2 299 -3 647 l-1 632 90 0 c71 0 97 -4 122 -20z"/>
<path d="M1466 2410 l-90 -5 -2 -725 c-1 -399 -5 -738 -8 -755 -18 -86 -51
-112 -144 -116 -37 -2 -55 -7 -60 -18 -4 -9 -7 -72 -7 -141 l1 -125 115 2
c274 5 367 60 404 240 25 123 27 201 30 925 l3 717 -77 3 c-42 2 -116 1 -165
-2z"/>
<path d="M1930 1468 l0 -948 165 0 165 0 0 335 0 335 23 1 c58 3 129 1 133 -4
5 -5 27 -94 38 -148 2 -13 13 -60 24 -104 12 -44 23 -91 26 -105 13 -70 69
-296 76 -303 3 -4 81 -6 172 -5 l165 3 -38 145 c-22 80 -67 246 -100 369 l-60
224 40 39 c90 89 120 230 115 537 -2 166 -5 203 -26 296 -35 162 -141 255
-307 272 -31 3 -181 6 -334 7 l-277 1 0 -947z m557 622 c45 -27 56 -75 58
-263 3 -236 -13 -305 -73 -328 -23 -9 -134 -15 -194 -10 -17 1 -18 23 -18 311
l0 310 98 0 c79 0 103 -4 129 -20z"/>
</g>
</svg>
